<mxfile host="app.diagrams.net" modified="2023-11-18T00:03:34.615Z" agent="Mozilla/5.0 (Macintosh; Intel Mac OS X 10_15_7) AppleWebKit/605.1.15 (KHTML, like Gecko) Version/17.0 Safari/605.1.15" version="22.1.3" etag="4Pb1ZERgtKMxDILsm2cf" type="github">
  <diagram name="Page-1" id="tTWX66NQ9ZhmFsDtdgRX">
    <mxGraphModel>
      <root>
        <mxCell id="0" />
        <mxCell id="1" parent="0" />
      </root>
    </mxGraphModel>
  </diagram>
</mxfile>
